Coordinates
version=1
nRows=8
nColumns=40
inDegrees=yes

Units are S.I. units (second, meters, Newtons, ...)
Angles are in degrees.

endheader
time	pelvis_tilt	pelvis_list	pelvis_rotation	pelvis_tx	pelvis_ty	pelvis_tz	hip_flexion_r	hip_adduction_r	hip_rotation_r	knee_angle_r	knee_angle_r_beta	ankle_angle_r	subtalar_angle_r	mtp_angle_r	hip_flexion_l	hip_adduction_l	hip_rotation_l	knee_angle_l	knee_angle_l_beta	ankle_angle_l	subtalar_angle_l	mtp_angle_l	lumbar_extension	lumbar_bending	lumbar_rotation	arm_flex_r	arm_add_r	arm_rot_r	elbow_flex_r	pro_sup_r	wrist_flex_r	wrist_dev_r	arm_flex_l	arm_add_l	arm_rot_l	elbow_flex_l	pro_sup_l	wrist_flex_l	wrist_dev_l
     19.15750000	     -4.81165512	     -3.72177388	      4.43392781	      0.79788681	      0.91920211	      0.46892440	     -4.32756332	      0.19567188	    -18.67959373	     16.33356271	     16.33356271	     17.72165662	      6.09135929	     -5.98057648	     28.46034223	     -3.00129934	      2.71730785	     27.09067700	     27.09067700	      6.64627704	    -15.61156106	      8.65469557	     -7.12637200	      6.35697804	      5.68685278	     38.77354699	    -18.03276499	     -4.70708914	     79.74633716	     44.85436861	      0.00000000	      0.00000000	    -10.88834977	     -7.33384523	     -2.44854837	     34.85415707	     45.12604690	      0.00000000	      0.00000000
     19.17114286	     -4.90705487	     -3.65032597	      4.15056543	      0.79894262	      0.91957369	      0.46574803	     -4.07497682	     -0.40439123	    -18.48292942	     17.62752508	     17.62752508	     17.40200255	      5.87380378	     -6.69703482	     28.10843894	     -2.82999762	      2.49261988	     27.43754545	     27.43754545	      7.46486308	    -15.73993917	      8.96675131	     -7.12192565	      6.36096556	      5.76429827	     37.56775181	    -18.38023920	     -5.23597285	     77.83771994	     44.93724508	      0.00000000	      0.00000000	    -10.34873469	     -7.44244112	     -2.54379779	     36.27461629	     45.15640654	      0.00000000	      0.00000000
     19.18478571	     -4.96448628	     -3.63466289	      3.88239222	      0.80005497	      0.91997846	      0.46261793	     -3.76368202	     -0.93317657	    -18.10752714	     19.00251519	     19.00251519	     16.38038415	      5.14016046	     -9.16371319	     27.71416311	     -2.71383804	      2.31128762	     27.80806310	     27.80806310	      8.68527328	    -15.63634132	     10.12631120	     -7.14145660	      6.38618641	      5.21279965	     36.92949295	    -17.68179502	     -6.42871590	     74.48188955	     45.10564423	      0.00000000	      0.00000000	    -10.78133895	     -7.77764996	     -2.64864546	     39.57463935	     45.20945846	      0.00000000	      0.00000000
     19.19842857	     -5.06895858	     -3.60024739	      3.58541501	      0.80102889	      0.92039297	      0.45949704	     -2.99524687	     -1.63687855	    -17.76626826	     21.19360158	     21.19360158	     15.79127765	      4.43606601	    -10.14917061	     27.26822861	     -2.63191539	      1.91218139	     27.93861802	     27.93861802	      9.26847896	    -15.50498635	      9.93428281	     -7.14914700	      6.41381229	      5.36940727	     35.34574739	    -18.30952259	     -6.62457907	     72.66734080	     45.17051468	      0.00000000	      0.00000000	    -10.01253857	     -7.96532781	     -2.85685000	     40.65036762	     45.25686094	      0.00000000	      0.00000000
     19.21207143	     -5.10088491	     -3.64962130	      3.31715086	      0.80198488	      0.92092200	      0.45654331	     -2.19236181	     -2.14048176	    -17.00580572	     23.37760924	     23.37760924	     14.08532399	      2.55000191	    -13.53351348	     26.73701563	     -2.65933322	      1.51816144	     28.03693324	     28.03693324	      9.93324095	    -15.19593752	      9.77122245	     -7.18817310	      6.47727555	      4.99072631	     34.40625675	    -17.95208978	     -7.70050707	     69.15300730	     45.33147386	      0.00000000	      0.00000000	    -10.06756176	     -8.33713880	     -3.17202037	     43.50114617	     45.34642326	      0.00000000	      0.00000000
     19.22571429	     -5.18262136	     -3.66820385	      3.03170859	      0.80279899	      0.92145169	      0.45366131	     -0.95732048	     -2.79694177	    -16.29280321	     26.25666505	     26.25666505	     12.50643652	      0.71759875	    -16.15736090	     26.16693303	     -2.67836670	      1.03625714	     27.94302899	     27.94302899	     10.44040325	    -14.79797339	      9.31124526	     -7.19275632	      6.50217374	      4.75377530	     33.04566345	    -18.03541290	     -8.20889234	     66.34755618	     45.44230913	      0.00000000	      0.00000000	     -9.62574437	     -8.68260477	     -3.54260467	     45.37219610	     45.44491811	      0.00000000	      0.00000000
     19.23935714	     -5.21890539	     -3.62211599	      2.74291900	      0.80346946	      0.92209007	      0.45076848	      0.58864194	     -3.64538893	    -15.71388353	     29.82209830	     29.82209830	     11.27681269	     -0.71682039	    -16.97578401	     25.51991240	     -2.63639053	      0.48386432	     27.79439816	     27.79439816	     10.94291158	    -14.38022604	      8.95026464	     -7.27801032	      6.50200626	      4.77638602	     31.21633831	    -18.41787838	     -8.45153696	     64.52434398	     45.50541089	      0.00000000	      0.00000000	     -8.70729101	     -9.01439214	     -3.80775122	     46.42636601	     45.49834904	      0.00000000	      0.00000000
     19.25300000	     -5.30834741	     -3.70148129	      2.46920885	      0.80395241	      0.92272780	      0.44827898	      2.42388169	     -4.17833401	    -14.66522371	     33.55134841	     33.55134841	      9.49490519	     -3.15093460	    -17.91478041	     24.95185618	     -2.76688341	     -0.06943444	     27.63110152	     27.63110152	     11.39954019	    -13.73777116	      8.38864355	     -7.29797609	      6.54949578	      4.83746703	     29.42256997	    -18.66836823	     -9.15817621	     61.70197713	     45.61940372	      0.00000000	      0.00000000	     -7.89771263	     -9.43150077	     -4.05667609	     48.19950696	     45.56166750	      0.00000000	      0.00000000
